<svg  viewBox="0 0 512 512" ><g id="Layer_1"/><g id="Layer_2"><g><g><path className="st0" d="M245.84,68.16c-105.4,1.69-190.53,86.82-192.24,192.22c-1.78,110.03,88.63,200.44,198.66,198.66     c105.4-1.7,190.53-86.83,192.22-192.24c0.03-1.76-1.41-3.2-3.18-3.2H252.22c-1.75,0-3.17-1.42-3.17-3.17V71.34     C249.05,69.58,247.61,68.13,245.84,68.16z"/></g><g><path class="st0" d="M307.92,56.14v144.12c0,1.75,1.42,3.17,3.17,3.17h144.12c1.79,0,3.21-1.48,3.17-3.27     c-1.72-80.52-66.67-145.48-147.19-147.19C309.4,52.93,307.92,54.35,307.92,56.14z"/></g></g></g></svg>